<svg width="29" height="29" viewBox="0 0 29 29" fill="none" xmlns="http://www.w3.org/2000/svg">
<path d="M9.66666 9.66663L9.66666 8.45829C9.66666 5.78892 11.8306 3.62496 14.5 3.62496V3.62496C17.1694 3.62496 19.3333 5.78892 19.3333 8.45829L19.3333 9.66663" stroke="#2B2E35" stroke-width="2.41667" stroke-linecap="round"/>
<path d="M18.125 16.9167V14.5" stroke="#2B2E35" stroke-width="2.41667" stroke-linecap="round"/>
<path d="M10.875 16.9167V14.5" stroke="#2B2E35" stroke-width="2.41667" stroke-linecap="round"/>
<path d="M4.83334 14.5C4.83334 12.2215 4.83334 11.0823 5.54117 10.3745C6.24899 9.66663 7.38822 9.66663 9.66668 9.66663H19.3333C21.6118 9.66663 22.751 9.66663 23.4589 10.3745C24.1667 11.0823 24.1667 12.2215 24.1667 14.5V15.7083C24.1667 20.2652 24.1667 22.5437 22.751 23.9593C21.3354 25.375 19.0569 25.375 14.5 25.375V25.375C9.9431 25.375 7.66464 25.375 6.24899 23.9593C4.83334 22.5437 4.83334 20.2652 4.83334 15.7083V14.5Z" stroke="#2B2E35" stroke-width="2.41667"/>
</svg>
