<svg width="34" height="34" viewBox="0 0 34 34" fill="none" xmlns="http://www.w3.org/2000/svg">
<circle cx="17" cy="17" r="17" fill="#FEEBDB"/>
<path d="M9.67249 16.2672C9.67249 15.2697 9.67249 14.7709 9.96386 14.4465C9.99102 14.4163 10.0198 14.3875 10.05 14.3603C10.3744 14.069 10.8732 14.069 11.8708 14.069H23.3018C24.2994 14.069 24.7982 14.069 25.1226 14.3603C25.1528 14.3875 25.1815 14.4163 25.2087 14.4465C25.5001 14.7709 25.5001 15.2697 25.5001 16.2672V17.1466C25.5001 17.3147 25.5001 17.3988 25.4912 17.4694C25.4264 17.9854 25.02 18.3918 24.504 18.4567C24.4333 18.4655 24.3493 18.4655 24.1811 18.4655V18.4655C24.013 18.4655 23.9289 18.4655 23.8583 18.4744C23.3422 18.5392 22.9358 18.9456 22.871 19.4616C22.8621 19.5323 22.8621 19.6163 22.8621 19.7845V22.3448C22.8621 23.4177 22.8621 23.9541 22.5288 24.2874C22.1956 24.6207 21.6591 24.6207 20.5863 24.6207H14.5863C13.5134 24.6207 12.977 24.6207 12.6437 24.2874C12.3104 23.9541 12.3104 23.4177 12.3104 22.3448V19.7845C12.3104 19.6163 12.3104 19.5323 12.3015 19.4616C12.2367 18.9456 11.8303 18.5392 11.3143 18.4744C11.2437 18.4655 11.1596 18.4655 10.9915 18.4655V18.4655C10.8233 18.4655 10.7392 18.4655 10.6686 18.4567C10.1526 18.3918 9.74617 17.9854 9.68136 17.4694C9.67249 17.3988 9.67249 17.3147 9.67249 17.1466V16.2672Z" stroke="#FF5963" stroke-width="1.13793"/>
<path d="M11.431 18.4655H23.7414" stroke="#FF5963" stroke-width="1.13793" stroke-linecap="round"/>
<path d="M17.5862 13.1896L17.5862 24.6206" stroke="#FF5963" stroke-width="1.13793" stroke-linecap="round"/>
<path d="M17.5862 13.1896L16.8137 12.4171C15.8761 11.4795 14.733 10.773 13.4751 10.3537V10.3537C12.4695 10.0185 11.431 10.767 11.431 11.827V11.9871C11.431 12.7052 11.8906 13.3428 12.5718 13.5699L14.069 14.0689" stroke="#FF5963" stroke-width="1.13793" stroke-linecap="round"/>
<path d="M17.5863 13.1896L18.3588 12.4171C19.2964 11.4795 20.4395 10.773 21.6974 10.3537V10.3537C22.703 10.0185 23.7415 10.767 23.7415 11.827V11.9871C23.7415 12.7052 23.2819 13.3428 22.6007 13.5699L21.1035 14.0689" stroke="#FF5963" stroke-width="1.13793" stroke-linecap="round"/>
</svg>
