<svg width="34" height="34" viewBox="0 0 34 34" fill="none" xmlns="http://www.w3.org/2000/svg">
<circle cx="17" cy="17" r="17" fill="#FEEBDB"/>
<path d="M11.6186 15.3497L12.2513 16.457C12.5664 17.0083 12.7239 17.284 12.7239 17.5862C12.7239 17.8884 12.5664 18.164 12.2513 18.7153L11.6186 19.8227C10.2094 22.2886 9.5049 23.5216 10.0543 24.133C10.6037 24.7445 11.9047 24.1753 14.5067 23.0369L14.5068 23.0369L22.1997 19.6712C24.2429 18.7773 25.2644 18.3304 25.2644 17.5862C25.2644 16.8419 24.2429 16.395 22.1997 15.5011L14.5068 12.1355C11.9047 10.9971 10.6037 10.4279 10.0543 11.0393C9.5049 11.6507 10.2094 12.8837 11.6186 15.3497Z" stroke="#FF5963" stroke-width="1.13793"/>
</svg>
