<svg width="29" height="29" viewBox="0 0 29 29" fill="none" xmlns="http://www.w3.org/2000/svg">
<circle cx="14.5" cy="14.5" r="14.5" fill="#FEEBDB"/>
<g clip-path="url(#clip0_52620_1087)">
<path d="M15 21.4167L19.125 17.2917C19.9408 16.4759 20.4963 15.4365 20.7213 14.3049C20.9463 13.1734 20.8308 12.0005 20.3892 10.9346C19.9477 9.86878 19.2 8.95777 18.2408 8.31682C17.2815 7.67587 16.1537 7.33377 15 7.33377C13.8463 7.33377 12.7185 7.67587 11.7592 8.31682C10.8 8.95777 10.0523 9.86878 9.61076 10.9346C9.16923 12.0005 9.05368 13.1734 9.27871 14.3049C9.50374 15.4365 10.0593 16.4759 10.875 17.2917L15 21.4167ZM15 23.7733L9.69667 18.47C8.64779 17.4211 7.93349 16.0847 7.64411 14.6299C7.35473 13.175 7.50326 11.667 8.07092 10.2966C8.63858 8.92616 9.59987 7.75483 10.8332 6.93072C12.0666 6.10661 13.5166 5.66675 15 5.66675C16.4834 5.66675 17.9334 6.10661 19.1668 6.93072C20.4001 7.75483 21.3614 8.92616 21.9291 10.2966C22.4968 11.667 22.6453 13.175 22.3559 14.6299C22.0665 16.0847 21.3522 17.4211 20.3033 18.47L15 23.7733V23.7733ZM15 14.8333C15.442 14.8333 15.866 14.6578 16.1785 14.3452C16.4911 14.0326 16.6667 13.6087 16.6667 13.1667C16.6667 12.7247 16.4911 12.3007 16.1785 11.9882C15.866 11.6756 15.442 11.5 15 11.5C14.558 11.5 14.1341 11.6756 13.8215 11.9882C13.5089 12.3007 13.3333 12.7247 13.3333 13.1667C13.3333 13.6087 13.5089 14.0326 13.8215 14.3452C14.1341 14.6578 14.558 14.8333 15 14.8333ZM15 16.5C14.1159 16.5 13.2681 16.1488 12.643 15.5237C12.0179 14.8986 11.6667 14.0507 11.6667 13.1667C11.6667 12.2826 12.0179 11.4348 12.643 10.8097C13.2681 10.1845 14.1159 9.83335 15 9.83335C15.8841 9.83335 16.7319 10.1845 17.357 10.8097C17.9821 11.4348 18.3333 12.2826 18.3333 13.1667C18.3333 14.0507 17.9821 14.8986 17.357 15.5237C16.7319 16.1488 15.8841 16.5 15 16.5Z" fill="#FF5963"/>
</g>
<defs>
<clipPath id="clip0_52620_1087">
<rect width="20" height="20" fill="white" transform="translate(5 4)"/>
</clipPath>
</defs>
</svg>
