<svg width="20" height="15" viewBox="0 0 20 15" fill="none" xmlns="http://www.w3.org/2000/svg">
<g clip-path="url(#clip0_11_5299)">
<path d="M20.0003 10.7475C19.9632 10.3608 19.9199 9.97464 19.8891 9.58742C19.7931 8.38716 19.7049 7.1869 19.6058 5.98664C19.5782 5.53919 19.3845 5.11819 19.0625 4.80621C18.0999 3.88183 17.1313 2.96389 16.1569 2.05239C15.8179 1.74461 15.4152 1.51546 14.9775 1.38129C13.784 0.995117 12.5952 0.594857 11.3918 0.242084C10.9195 0.0990327 10.4298 0.021767 9.93637 0.012469C6.85118 -0.00736145 3.76547 0.00203177 0.679751 0.00255363C0.22313 0.00255363 0.00134277 0.228516 0.00134277 0.687224C0.00134277 2.73149 0.00134277 4.77542 0.00134277 6.81899C0.00134277 7.26883 0.219999 7.50105 0.663052 7.50418C1.14211 7.50732 1.52254 7.69466 1.78817 8.09336C2.0804 8.53171 2.35855 8.9805 2.64922 9.41834C3.3652 10.5017 4.3322 11.3215 5.39417 12.048C6.45614 12.7744 7.49254 13.5196 8.54094 14.257C8.93598 14.5341 9.09254 14.5361 9.49593 14.2695C9.85778 14.0358 10.1712 13.7346 10.4191 13.3823C10.9122 12.6726 10.9796 11.9123 10.6497 11.1227C10.5819 10.9599 10.6169 10.8874 10.7343 10.7851C11.2948 10.2987 11.8479 9.80451 12.4042 9.31188C12.6278 9.12099 12.8066 8.88311 12.9277 8.61521C13.0489 8.3473 13.1094 8.05597 13.1051 7.76198C13.1077 6.94789 13.1051 6.13432 13.1051 5.32075V5.08592C13.4504 5.08267 13.7848 5.20677 14.0444 5.43452C14.5104 5.852 14.9665 6.27887 15.4054 6.72297C15.767 7.08827 15.8594 7.56837 15.9053 8.06518C15.9669 8.7321 16.0394 9.39851 16.1339 10.0618C16.2064 10.55 16.4631 10.992 16.8513 11.2969C17.2396 11.6017 17.7298 11.7463 18.2213 11.7009C18.5777 11.6691 18.9336 11.6253 19.2911 11.6086C19.6298 11.5929 19.8771 11.464 20.0034 11.1389L20.0003 10.7475ZM18.7839 10.4709C18.5652 10.4918 18.3664 10.5095 18.1655 10.5294C17.6958 10.5763 17.3232 10.2784 17.2705 9.8066C17.1875 9.06974 17.1139 8.33184 17.0252 7.59603C16.951 6.91665 16.6416 6.28459 16.1506 5.80921C15.7462 5.4126 15.3365 5.02121 14.918 4.63974C14.4034 4.17007 13.7929 3.91645 13.0946 3.90914C12.0144 3.90079 10.9336 3.89766 9.85288 3.90914C8.74394 3.92323 7.87349 4.40542 7.26188 5.32754C6.53546 6.42343 6.57616 7.94463 7.40747 9.08905C7.77277 9.59525 8.25235 10.0221 8.68236 10.4824C8.8911 10.7057 9.1228 10.9093 9.3138 11.1467C9.85183 11.8152 9.79234 12.4633 9.16768 13.0463C9.06958 13.1376 9.00434 13.1506 8.88849 13.0666C7.76964 12.2718 6.64453 11.4859 5.52307 10.6943C4.71691 10.1281 4.02866 9.41043 3.49671 8.58129C3.22952 8.16381 2.97068 7.74371 2.6821 7.34293C2.33246 6.85813 1.86801 6.52519 1.26997 6.4036C1.24134 6.39553 1.21369 6.38433 1.18751 6.3702V1.17411H1.32006C4.19704 1.17411 7.07453 1.16785 9.95151 1.18246C10.3289 1.18912 10.7034 1.24993 11.0636 1.36302C12.251 1.72345 13.4319 2.10405 14.6064 2.50484C14.9144 2.6096 15.1983 2.77498 15.4414 2.9912C16.3693 3.83765 17.271 4.71332 18.1827 5.57698C18.3417 5.72455 18.4365 5.92859 18.4467 6.14528C18.4864 6.70314 18.5355 7.26048 18.5793 7.81834C18.6456 8.69401 18.7134 9.56915 18.7839 10.4709ZM8.82796 9.00973C9.21361 8.66739 9.5789 8.34489 9.94263 8.02082C10.1676 7.82714 10.3468 7.58611 10.4676 7.31499C10.5885 7.04388 10.6478 6.7494 10.6414 6.45265C10.6414 6.06996 10.6414 5.6864 10.6414 5.30197V5.09323H11.9111C11.9193 5.1137 11.9251 5.13507 11.9283 5.15689C11.9283 6.04769 11.9419 6.9385 11.9199 7.82878C11.9119 8.02341 11.8341 8.20865 11.7008 8.35063C11.1058 8.91266 10.4843 9.44652 9.86436 9.99603L8.82796 9.00973ZM8.15477 8.04169C7.55464 6.82891 8.23722 5.32806 9.45418 5.14124C9.45418 5.64743 9.46775 6.15311 9.44531 6.65461C9.429 6.80411 9.36109 6.94325 9.25327 7.04809C8.90467 7.38781 8.53363 7.70249 8.15477 8.04117V8.04169Z" fill="#FF5963"/>
</g>
<defs>
<clipPath id="clip0_11_5299">
<rect width="20" height="14.4673" fill="white"/>
</clipPath>
</defs>
</svg>
