<svg width="18" height="20" viewBox="0 0 18 20" fill="none" xmlns="http://www.w3.org/2000/svg">
<path d="M13.1158 0C13.2057 0.0212956 13.2935 0.0425908 13.3813 0.0596273C14.1079 0.200087 14.7613 0.591504 15.2259 1.16472C15.6905 1.73794 15.9364 2.45606 15.9203 3.1922C15.931 4.74039 15.9203 6.29071 15.9203 7.83889C15.9387 8.01573 15.8968 8.19358 15.8013 8.34384C15.7057 8.49409 15.5622 8.60802 15.3937 8.66729C15.2424 8.71704 15.0795 8.71985 14.9265 8.67535C14.7736 8.63085 14.6378 8.54115 14.5373 8.41813C14.4059 8.23679 14.3437 8.01486 14.3618 7.79204C14.3618 6.28219 14.3618 4.77233 14.3618 3.26248C14.3772 3.00175 14.3292 2.74116 14.2219 2.5028C14.1146 2.26443 13.9511 2.05532 13.7452 1.89317C13.4639 1.67431 13.1154 1.5585 12.7583 1.56522C9.55847 1.56522 6.35863 1.56522 3.15878 1.56522C2.75041 1.55547 2.35471 1.70669 2.05796 1.98593C1.7612 2.26517 1.58744 2.64977 1.57456 3.05591C1.57456 3.1198 1.57456 3.18582 1.57456 3.2497C1.57456 7.74732 1.57456 12.2457 1.57456 16.7447C1.56016 17.0054 1.60906 17.2657 1.71712 17.5037C1.82518 17.7417 1.98923 17.9503 2.19541 18.1119C2.49034 18.3343 2.85308 18.4493 3.22301 18.4377C4.0665 18.4377 4.90999 18.4377 5.75562 18.4377C5.9239 18.4322 6.0893 18.482 6.22628 18.5794C6.36326 18.6768 6.46419 18.8163 6.51348 18.9765C6.56782 19.1246 6.57236 19.2863 6.52642 19.4372C6.48048 19.5881 6.38654 19.7201 6.25872 19.8134C6.1041 19.9187 5.92344 19.9798 5.73636 19.9901C4.88002 20.0072 4.0087 19.9901 3.14594 19.9901C2.72491 19.9872 2.30869 19.9007 1.92161 19.7359C1.53454 19.5711 1.18437 19.3312 0.89157 19.0302C0.598769 18.7293 0.369209 18.3733 0.216307 17.983C0.0634042 17.5928 -0.00977457 17.1762 0.00104668 16.7575C0.0224551 14.1722 0.00104668 11.589 0.00104668 9.00376V3.23267C0.00104668 2.00604 0.512708 1.052 1.57885 0.432299C1.92233 0.268714 2.28077 0.138217 2.64927 0.0425921C2.6985 0.0255556 2.74774 0.0149069 2.79912 0H13.1158Z" fill="#FF5963"/>
<path d="M17.9993 12.9157C18.0084 13.2365 17.9511 13.5557 17.831 13.8535C17.711 14.1513 17.5307 14.4214 17.3014 14.6471C15.8927 16.0526 14.479 17.4538 13.0604 18.8508C12.918 18.9829 12.7464 19.0799 12.5594 19.134C11.5746 19.4173 10.5834 19.6856 9.59648 19.956C9.09766 20.0923 8.6802 19.9071 8.55389 19.4684C8.50783 19.3004 8.50783 19.1232 8.55389 18.9551C8.83934 17.9614 9.1412 16.9725 9.45947 15.9887C9.5133 15.8227 9.60571 15.6717 9.72921 15.5479C11.1322 14.1452 12.5394 12.7468 13.9509 11.3526C14.2528 11.0434 14.6346 10.8231 15.0543 10.7158C15.474 10.6085 15.9153 10.6185 16.3296 10.7447C16.7439 10.8708 17.1152 11.1082 17.4026 11.4308C17.6901 11.7534 17.8824 12.1486 17.9586 12.5729C17.9795 12.6862 17.9931 12.8007 17.9993 12.9157ZM10.4571 18.0948C10.9581 17.9585 11.4226 17.835 11.885 17.7008C11.9892 17.6691 12.0845 17.6137 12.1633 17.539C13.0468 16.6673 13.9274 15.7942 14.8051 14.9196C14.8458 14.8792 14.8844 14.8345 14.91 14.8068L13.7775 13.6781C13.7459 13.7367 13.7078 13.7917 13.6641 13.8421C12.949 14.5576 12.2447 15.2859 11.5061 15.9716C11.081 16.3291 10.7885 16.8179 10.6755 17.3601C10.6305 17.6007 10.5363 17.8137 10.4571 18.0842V18.0948ZM16.0575 13.6611C16.2004 13.5704 16.3108 13.4371 16.3731 13.2804C16.4353 13.1236 16.4463 12.9513 16.4044 12.788C16.3712 12.6401 16.2937 12.5057 16.1821 12.4026C16.0704 12.2996 15.9299 12.2327 15.7792 12.2108C15.6234 12.1849 15.4633 12.2061 15.3197 12.2718C15.1762 12.3375 15.0558 12.4446 14.9743 12.5793L16.0575 13.6611Z" fill="#FF5963"/>
<path d="M7.95174 4.68936C9.28048 4.68936 10.6085 4.68936 11.9358 4.68936C12.1385 4.68143 12.3363 4.75173 12.488 4.88555C12.6397 5.01938 12.7336 5.20638 12.7499 5.40743C12.7662 5.60848 12.7037 5.80802 12.5756 5.96432C12.4474 6.12062 12.2634 6.22157 12.0621 6.24606C12.0108 6.24606 11.9572 6.24606 11.9059 6.24606H3.99547C3.50093 6.24606 3.16696 5.96496 3.13913 5.5284C3.12746 5.41697 3.14028 5.30435 3.1767 5.19834C3.21313 5.09233 3.27228 4.99545 3.35006 4.91443C3.42785 4.83341 3.52241 4.77017 3.6272 4.72911C3.73198 4.68804 3.84449 4.67012 3.95693 4.67658C4.94386 4.67658 5.93292 4.67658 6.91985 4.67658L7.95174 4.68936Z" fill="#FF5963"/>
<path d="M7.93674 9.37631C6.60942 9.37631 5.27996 9.37631 3.95264 9.37631C3.75118 9.38125 3.55552 9.30901 3.40609 9.17451C3.25667 9.04 3.16492 8.85353 3.1498 8.65364C3.13468 8.45375 3.19735 8.25572 3.32486 8.1005C3.45236 7.94527 3.63496 7.84471 3.83489 7.81961C3.88627 7.81961 3.93979 7.81961 3.99117 7.81961H11.9123C12.0182 7.81209 12.1245 7.826 12.2249 7.86051C12.3252 7.89501 12.4175 7.94939 12.4961 8.02035C12.5748 8.09132 12.6381 8.17741 12.6824 8.27341C12.7266 8.36941 12.7509 8.47334 12.7536 8.57892C12.7564 8.6845 12.7376 8.78954 12.6984 8.8877C12.6592 8.98585 12.6004 9.07509 12.5256 9.15001C12.4507 9.22493 12.3614 9.28399 12.263 9.32362C12.1646 9.36325 12.0591 9.38262 11.953 9.38057C11.1266 9.38057 10.3024 9.38057 9.47814 9.38057L7.93674 9.37631Z" fill="#FF5963"/>
<path d="M6.37279 12.5005C5.56355 12.5005 4.75218 12.5005 3.94294 12.5005C3.73513 12.4983 3.53673 12.414 3.3914 12.2662C3.24606 12.1185 3.16568 11.9193 3.16795 11.7126C3.17023 11.5059 3.25496 11.3085 3.40351 11.164C3.55205 11.0194 3.75226 10.9394 3.96007 10.9417C4.76502 10.9417 5.56784 10.9417 6.37279 10.9417C7.17775 10.9417 7.99341 10.9417 8.80264 10.9417C9.01045 10.944 9.20885 11.0282 9.35419 11.176C9.49952 11.3238 9.5799 11.5229 9.57763 11.7296C9.57536 11.9363 9.49063 12.1337 9.34208 12.2783C9.19353 12.4228 8.99333 12.5028 8.78552 12.5005C7.972 12.5027 7.16918 12.5005 6.37279 12.5005Z" fill="#FF5963"/>
</svg>
