<?xml version="1.0" encoding="UTF-8"?>
<svg version="1.1" xmlns="http://www.w3.org/2000/svg" width="512" height="512">
<path d="M0 0 C2.06104555 1.08149144 4.07679915 2.22239655 6.09082031 3.38916016 C6.86619141 3.8291333 7.6415625 4.26910645 8.44042969 4.72241211 C11.0394122 6.20335236 13.62863529 7.70021074 16.21582031 9.20166016 C17.58335449 9.99443359 17.58335449 9.99443359 18.97851562 10.80322266 C23.95185591 13.69107901 28.91751489 16.59187179 33.87988281 19.49853516 C40.26864076 23.23800636 46.67701969 26.94284272 53.09082031 30.63916016 C54.16388428 31.25774902 55.23694824 31.87633789 56.3425293 32.51367188 C60.76767213 35.06395591 65.19352385 37.61300745 69.61962891 40.16162109 C70.74836426 40.81163086 71.87709961 41.46164063 73.04003906 42.13134766 C74.15975098 42.77612061 75.27946289 43.42089355 76.43310547 44.08520508 C79.69766072 45.96764932 82.95882955 47.85585676 86.21972656 49.74462891 C89.98270123 51.92237336 93.75883246 54.07182976 97.55566406 56.18994141 C98.35222412 56.64071045 99.14878418 57.09147949 99.96948242 57.5559082 C101.41294875 58.37247621 102.86257704 59.17829707 104.31958008 59.97045898 C108.33800722 62.26500313 109.87131724 63.8120214 111.21582031 68.20166016 C111.47308922 70.81757355 111.47308922 70.81757355 111.48324585 73.66662598 C111.4960408 75.29423607 111.4960408 75.29423607 111.50909424 76.95472717 C111.50773468 78.72534767 111.50773468 78.72534767 111.50634766 80.53173828 C111.51306488 81.78264755 111.5197821 83.03355682 111.52670288 84.32237244 C111.54243127 87.74593101 111.54905693 91.16924699 111.55033445 94.59282494 C111.55175776 96.73283804 111.55603067 98.87282584 111.56132889 101.01283264 C111.57981695 108.48155325 111.58800069 115.95020257 111.58642578 123.41894531 C111.58522341 130.37696757 111.6063474 137.33468013 111.63791311 144.292624 C111.66406924 150.27153687 111.67479342 156.2503485 111.67351496 162.22931814 C111.6730053 165.79817703 111.67869091 169.36676033 111.69987106 172.93556213 C111.72284163 176.9143586 111.71373655 180.89273003 111.70166016 184.87158203 C111.71289917 186.0519957 111.72413818 187.23240936 111.73571777 188.44859314 C111.6739254 196.44113678 111.6739254 196.44113678 109.29330444 200.39332581 C107.469574 201.98078169 105.86704035 203.26794995 103.73144531 204.38525391 C103.05662109 204.74772217 102.38179687 205.11019043 101.68652344 205.48364258 C100.95369141 205.86496338 100.22085938 206.24628418 99.46582031 206.63916016 C97.83422557 207.51679591 96.20409109 208.3971502 94.57519531 209.27978516 C93.70572266 209.74964844 92.83625 210.21951172 91.94042969 210.70361328 C87.1454125 213.34001341 82.43404138 216.11837459 77.71582031 218.88916016 C66.02383872 225.73798838 54.29235784 232.51641346 42.55078125 239.27978516 C37.98155414 241.91294444 33.41444913 244.54976543 28.84814453 247.18798828 C26.61971229 248.47351091 24.38960606 249.75613671 22.15771484 251.03564453 C17.67574872 253.60700465 13.2061485 256.17971906 8.82519531 258.92041016 C8.19838867 259.30463135 7.57158203 259.68885254 6.92578125 260.0847168 C5.38740087 261.03335541 3.86314068 262.00480161 2.34082031 262.97900391 C-3.23695076 265.16130684 -8.05227048 265.3438526 -13.63671875 263.0090332 C-16.80426421 261.30513556 -19.85478448 259.47588226 -22.90917969 257.57666016 C-24.05383809 256.88750309 -25.19986348 256.20061197 -26.34716797 255.51586914 C-28.69773562 254.10961746 -31.04136148 252.69279201 -33.37988281 251.26660156 C-38.43510775 248.20025815 -43.54643421 245.23321124 -48.65917969 242.26416016 C-49.63000488 241.69681152 -50.60083008 241.12946289 -51.60107422 240.54492188 C-59.30019372 236.04674371 -67.03732993 231.61684225 -74.78417969 227.20166016 C-83.89000817 222.01097689 -92.97804371 216.79127422 -102.03417969 211.51416016 C-103.00355469 210.95019531 -103.97292969 210.38623047 -104.97167969 209.80517578 C-106.76236091 208.75934713 -108.54971108 207.70778524 -110.33300781 206.64941406 C-111.93024836 205.70602398 -113.53804271 204.7802104 -115.15722656 203.875 C-115.87458984 203.46072754 -116.59195313 203.04645508 -117.33105469 202.61962891 C-117.95334961 202.27053467 -118.57564453 201.92144043 -119.21679688 201.56176758 C-121.96488744 199.17709273 -122.6929604 196.12917895 -123.04144859 192.58574677 C-123.04480028 191.64555946 -123.04815197 190.70537216 -123.05160522 189.73669434 C-123.06013519 188.65162094 -123.06866516 187.56654755 -123.07745361 186.44859314 C-123.07654724 185.26817947 -123.07564087 184.08776581 -123.07470703 182.87158203 C-123.08478287 180.99521812 -123.08478287 180.99521812 -123.09506226 179.08094788 C-123.11079064 175.6573893 -123.1174163 172.23407332 -123.11869383 168.81049538 C-123.12011714 166.67048228 -123.12439005 164.53049448 -123.12968826 162.39048767 C-123.14817632 154.92176706 -123.15636006 147.45311774 -123.15478516 139.984375 C-123.15358278 133.02635274 -123.17470678 126.06864018 -123.20627248 119.11069632 C-123.23242861 113.13178345 -123.2431528 107.15297182 -123.24187434 101.17400217 C-123.24136467 97.60514328 -123.24705028 94.03655998 -123.26823044 90.46775818 C-123.291201 86.48896171 -123.28209593 82.51059028 -123.27001953 78.53173828 C-123.28125854 77.35132462 -123.29249756 76.17091095 -123.30407715 74.95472717 C-123.24234239 66.96963659 -123.24234239 66.96963659 -120.89035034 63.02720642 C-118.73784109 61.16149568 -116.70880742 59.72219679 -114.20605469 58.36181641 C-113.3037915 57.86294922 -112.40152832 57.36408203 -111.47192383 56.85009766 C-110.01774048 56.06505859 -110.01774048 56.06505859 -108.53417969 55.26416016 C-106.46428247 54.12123348 -104.39530217 52.97664495 -102.32714844 51.83056641 C-101.25513184 51.23904785 -100.18311523 50.6475293 -99.07861328 50.03808594 C-93.62570695 46.99845637 -88.23556152 43.85300642 -82.84667969 40.70166016 C-81.85958008 40.12681885 -80.87248047 39.55197754 -79.85546875 38.9597168 C-75.80585947 36.59374264 -71.78207233 34.21620867 -67.84277344 31.67041016 C-63.69051916 29.04269595 -59.30883791 26.94706237 -54.90283203 24.78173828 C-49.84243659 22.21786797 -44.97762869 19.33884033 -40.09667969 16.45166016 C-39.06518799 15.84620361 -38.03369629 15.24074707 -36.97094727 14.61694336 C-32.15961878 11.79089895 -27.35728314 8.94979888 -22.55761719 6.10400391 C-21.77604248 5.64155273 -20.99446777 5.17910156 -20.18920898 4.70263672 C-18.74881635 3.84947011 -17.31007557 2.99350627 -15.87329102 2.13427734 C-10.13823807 -1.26783565 -6.4014832 -2.86437467 0 0 Z " fill="#FED064" transform="translate(259.7841796875,42.79833984375)"/>
<path d="M0 0 C0.90128632 -0.00960754 1.80257263 -0.01921509 2.73117065 -0.02911377 C3.69789703 -0.03336365 4.66462341 -0.03761353 5.66064453 -0.04199219 C6.66177277 -0.04769226 7.662901 -0.05339233 8.69436646 -0.05926514 C10.81088202 -0.06870365 12.92741221 -0.07524455 15.04394531 -0.07910156 C18.27451286 -0.08881026 21.50444488 -0.11984611 24.73486328 -0.15136719 C26.79345326 -0.15789737 28.85204778 -0.16314778 30.91064453 -0.16699219 C31.87332245 -0.17933899 32.83600037 -0.19168579 33.82785034 -0.20440674 C39.09929366 -0.18697584 42.88717128 0.1390494 47.41845703 3.16113281 C50.40360545 9.13142966 48.41845703 16.48613801 48.41845703 23.16113281 C80.75845703 23.16113281 113.09845703 23.16113281 146.41845703 23.16113281 C146.41845703 17.55113281 146.41845703 11.94113281 146.41845703 6.16113281 C150.41845703 1.16113281 150.41845703 1.16113281 152.3821106 0.35870361 C154.59976222 0.14354218 156.77117373 0.01925883 159 0 C159.90128632 -0.00960754 160.80257263 -0.01921509 161.73117065 -0.02911377 C162.69789703 -0.03336365 163.66462341 -0.03761353 164.66064453 -0.04199219 C165.66177277 -0.04769226 166.662901 -0.05339233 167.69436646 -0.05926514 C169.81088202 -0.06870365 171.92741221 -0.07524455 174.04394531 -0.07910156 C177.27451286 -0.08881026 180.50444488 -0.11984611 183.73486328 -0.15136719 C185.79345326 -0.15789737 187.85204778 -0.16314778 189.91064453 -0.16699219 C190.87332245 -0.17933899 191.83600037 -0.19168579 192.82785034 -0.20440674 C198.04169832 -0.18716629 202.0438934 -0.01486096 206.41845703 3.16113281 C208.41845703 8.16113281 208.41845703 8.16113281 208.41845703 23.16113281 C240.42845703 23.16113281 272.43845703 23.16113281 305.41845703 23.16113281 C305.41845703 17.55113281 305.41845703 11.94113281 305.41845703 6.16113281 C309.41845703 1.16113281 309.41845703 1.16113281 311.38111877 0.35771179 C313.60549623 0.14308575 315.78031666 0.02661201 318.01586914 0.01586914 C319.37264015 0.00629936 319.37264015 0.00629936 320.75682068 -0.00346375 C321.72668411 -0.00457657 322.69654755 -0.00568939 323.69580078 -0.00683594 C324.69930069 -0.01016434 325.7028006 -0.01349274 326.73670959 -0.016922 C328.85742739 -0.02198087 330.97815313 -0.02433064 333.09887695 -0.02416992 C336.34030276 -0.02635663 339.58138829 -0.04452409 342.82275391 -0.06347656 C344.8846017 -0.06641066 346.94645111 -0.06839535 349.00830078 -0.06933594 C349.97613998 -0.07652145 350.94397919 -0.08370697 351.94114685 -0.09111023 C360.93224296 -0.06063397 360.93224296 -0.06063397 364.41845703 2.16113281 C367.9131113 6.24707349 367.78486493 10.34035222 367.60595703 15.47363281 C367.59242188 16.21419922 367.57888672 16.95476562 367.56494141 17.71777344 C367.52981682 19.53254356 367.47601675 21.34693569 367.41845703 23.16113281 C368.73040039 23.13494873 370.04234375 23.10876465 371.39404297 23.08178711 C376.26170801 22.99128435 381.12929873 22.93388287 385.99755859 22.88647461 C388.10445664 22.86133069 390.21126746 22.82721074 392.31787109 22.78393555 C395.34641023 22.72327913 398.37379633 22.69492198 401.40283203 22.67285156 C402.81553375 22.63414192 402.81553375 22.63414192 404.2567749 22.59465027 C410.79895969 22.59184462 410.79895969 22.59184462 414.02709961 25.55834961 C416.23330425 29.68545044 415.50760406 31.65932508 414.41845703 36.16113281 C412.8412685 38.27355963 412.00266036 39.05737051 409.38728333 39.52189636 C408.61228989 39.51523453 407.83729645 39.50857269 407.03881836 39.50170898 C406.15813187 39.50148239 405.27744537 39.5012558 404.37007141 39.50102234 C403.42310898 39.48553848 402.47614655 39.47005463 401.50048828 39.45410156 C400.52810715 39.44985672 399.55572601 39.44561188 398.55387878 39.4412384 C395.44595737 39.42443596 392.33868269 39.38678061 389.23095703 39.34863281 C387.1248466 39.33358801 385.01872601 39.31989925 382.91259766 39.30761719 C377.74763465 39.27452725 372.58315552 39.2227339 367.41845703 39.16113281 C367.45326172 40.258125 367.48806641 41.35511719 367.52392578 42.48535156 C367.55207569 43.93976327 367.57937456 45.39419162 367.60595703 46.84863281 C367.64366211 47.93047852 367.64366211 47.93047852 367.68212891 49.03417969 C367.74512935 53.63321172 367.30418 56.53548088 364.41845703 60.16113281 C361.17895873 62.32079834 360.28998732 62.4130806 356.55151367 62.41992188 C355.56361343 62.4262262 354.5757132 62.43253052 353.55787659 62.43902588 C352.4922197 62.43497742 351.42656281 62.43092896 350.32861328 62.42675781 C349.23254257 62.42867126 348.13647186 62.43058472 347.00718689 62.43255615 C344.68797578 62.43391783 342.36875704 62.43022263 340.04956055 62.421875 C336.49852358 62.41118569 332.94799373 62.42176585 329.39697266 62.43457031 C327.14501841 62.43324851 324.89306449 62.4306857 322.64111328 62.42675781 C321.57748062 62.43080627 320.51384796 62.43485474 319.41798401 62.43902588 C318.42693161 62.43272156 317.43587921 62.42641724 316.41479492 62.41992188 C315.54448135 62.41833069 314.67416779 62.4167395 313.77748108 62.4151001 C311.14799044 62.13201498 309.6044617 61.64902696 307.41845703 60.16113281 C305.41845703 56.16113281 305.41845703 56.16113281 305.41845703 39.16113281 C273.40845703 39.16113281 241.39845703 39.16113281 208.41845703 39.16113281 C208.41845703 44.11113281 208.41845703 49.06113281 208.41845703 54.16113281 C206.01550964 60.16850129 206.01550964 60.16850129 202.41845703 62.16113281 C200.03492737 62.55554199 200.03492737 62.55554199 197.36206055 62.58105469 C195.8551339 62.60492249 195.8551339 62.60492249 194.31776428 62.62927246 C193.23853195 62.62947388 192.15929962 62.62967529 191.04736328 62.62988281 C189.37564308 62.6413031 189.37564308 62.6413031 187.67015076 62.6529541 C185.31405884 62.66375586 182.95791903 62.66660792 180.60180664 62.66210938 C176.99755991 62.66113729 173.39544312 62.70275656 169.79150391 62.74707031 C167.5017948 62.75227745 165.2120783 62.7549655 162.92236328 62.75488281 C161.30655113 62.77947571 161.30655113 62.77947571 159.65809631 62.80456543 C158.65032639 62.79526001 157.64255646 62.78595459 156.60424805 62.77636719 C155.7214064 62.77842163 154.83856476 62.78047607 153.92897034 62.78259277 C151.41845703 62.16113281 151.41845703 62.16113281 146.41845703 57.16113281 C146.41845703 51.22113281 146.41845703 45.28113281 146.41845703 39.16113281 C114.07845703 39.16113281 81.73845703 39.16113281 48.41845703 39.16113281 C48.41845703 45.43113281 48.41845703 51.70113281 48.41845703 58.16113281 C42.79165716 62.66257271 42.79165716 62.66257271 38.24853516 62.69458008 C37.24399292 62.71041641 36.23945068 62.72625275 35.20446777 62.74256897 C34.13039673 62.7376091 33.05632568 62.73264923 31.94970703 62.72753906 C30.83664185 62.73373764 29.72357666 62.73993622 28.57678223 62.74632263 C26.22665277 62.75341734 23.87647302 62.75025297 21.52636719 62.73754883 C17.93086317 62.72368066 14.33796018 62.75776589 10.74267578 62.79589844 C8.45751889 62.79684962 6.17235875 62.79499087 3.88720703 62.79003906 C2.81313599 62.80329727 1.73906494 62.81655548 0.63244629 62.83021545 C-3.98173754 62.77264686 -6.78991288 62.64574632 -10.77880859 60.20385742 C-13.27960279 55.98292053 -13.14057232 52.65405874 -12.89404297 47.84863281 C-12.87148438 47.01267578 -12.84892578 46.17671875 -12.82568359 45.31542969 C-12.76704907 43.26322132 -12.67737512 41.2119408 -12.58154297 39.16113281 C-13.71696533 39.17684326 -14.8523877 39.19255371 -16.0222168 39.20874023 C-20.23210566 39.26301313 -24.44196356 39.29747318 -28.65209961 39.32592773 C-30.47474364 39.34102041 -32.29735133 39.36149676 -34.11987305 39.38745117 C-36.73869797 39.42381384 -39.35704304 39.44085405 -41.97607422 39.45410156 C-43.19965385 39.47732735 -43.19965385 39.47732735 -44.44795227 39.50102234 C-50.13270951 39.50271599 -50.13270951 39.50271599 -52.26225281 37.8820343 C-54.43286624 35.05065422 -55.03344609 31.63633143 -54.58154297 28.16113281 C-53.1081543 25.55834961 -53.1081543 25.55834961 -50.58154297 23.16113281 C-47.48796065 22.71571673 -44.95961951 22.57475278 -41.87841797 22.67285156 C-41.04062805 22.6799263 -40.20283813 22.68700104 -39.33966064 22.69429016 C-36.6693715 22.72223215 -34.00119589 22.78496668 -31.33154297 22.84863281 C-29.5190733 22.8737161 -27.70657069 22.89652922 -25.89404297 22.91699219 C-21.45573126 22.97205777 -17.01899516 23.05832614 -12.58154297 23.16113281 C-12.62794922 21.99195313 -12.67435547 20.82277344 -12.72216797 19.61816406 C-12.75969891 18.07001261 -12.79609766 16.52183342 -12.83154297 14.97363281 C-12.86505859 14.20470703 -12.89857422 13.43578125 -12.93310547 12.64355469 C-13.00075531 8.70295146 -12.86536311 6.64149212 -10.81591797 3.17285156 C-7.45462718 0.14651458 -4.40901179 0.03809737 0 0 Z " fill="#E5646E" transform="translate(75.58154296875,408.8388671875)"/>
<path d="M0 0 C0.47259813 0.41215382 0.94519627 0.82430763 1.43211555 1.24895096 C2.05635855 1.78951504 2.68060154 2.33007912 3.32376099 2.88702393 C3.94073412 3.42292774 4.55770725 3.95883156 5.19337654 4.51097488 C7.50506171 6.41627355 9.9261101 7.8654947 12.5546875 9.296875 C13.57248291 9.85761719 14.59027832 10.41835937 15.63891602 10.99609375 C16.70682373 11.57488281 17.77473145 12.15367188 18.875 12.75 C21.13227038 13.99341303 23.38878014 15.23820788 25.64453125 16.484375 C26.73846191 17.08701172 27.83239258 17.68964844 28.95947266 18.31054688 C32.86394859 20.48004852 36.72208565 22.71947005 40.5625 25 C41.22048584 25.39002197 41.87847168 25.78004395 42.55639648 26.18188477 C43.94173637 27.00329854 45.32690374 27.82500332 46.71191406 28.64697266 C51.27609862 31.34593881 55.85745823 34.01556297 60.4375 36.6875 C61.44006836 37.27281494 62.44263672 37.85812988 63.47558594 38.46118164 C68.95019611 41.65326462 74.43372501 44.82920464 79.9296875 47.984375 C80.50624588 48.31568924 81.08280426 48.64700348 81.67683411 48.98835754 C84.45192418 50.58293822 87.2283714 52.17503639 90.00756836 53.76245117 C91.52942749 54.636073 91.52942749 54.636073 93.08203125 55.52734375 C93.96093018 56.02999756 94.8398291 56.53265137 95.74536133 57.05053711 C96.81939209 57.69385986 97.89342285 58.33718262 99 59 C99.88357965 59.42847638 100.76715929 59.85695276 101.67751408 60.29841328 C109.37742784 64.4086729 109.37742784 64.4086729 111.01506138 68.59455013 C111.38872904 71.78762311 111.41584582 74.82421921 111.32470703 78.03808594 C111.33933739 79.83192467 111.33933739 79.83192467 111.35426331 81.66200256 C111.3703915 84.92587646 111.33815711 88.18491081 111.28433084 91.44824123 C111.23979876 94.86750781 111.25856967 98.28642088 111.27072144 101.70587158 C111.28435374 108.17674696 111.24304666 114.64602065 111.18105018 121.1165669 C111.1061356 129.19615779 111.09874885 137.27558145 111.09375 145.35546875 C111.09177483 148.18263816 111.08939195 151.00980658 111.08639526 153.8369751 C111.08568807 154.52152653 111.08498087 155.20607796 111.08425224 155.91137338 C111.07739295 160.63655547 111.05080051 165.36130095 111.01638794 170.08636475 C111.00859818 171.33721359 111.00080841 172.58806244 110.99278259 173.8768158 C110.97748572 176.21749434 110.95821991 178.55815152 110.93431091 180.89875793 C110.925149 182.44218117 110.925149 182.44218117 110.915802 184.01678467 C110.90796755 184.91197186 110.90013309 185.80715904 110.89206123 186.72947311 C110.90522461 189.16704447 110.90522461 189.16704447 112 192 C108.36739655 190.63527177 105.09038593 189.0019884 101.73828125 187.05078125 C100.71541016 186.4578125 99.69253906 185.86484375 98.63867188 185.25390625 C97.54103516 184.61324219 96.44339844 183.97257813 95.3125 183.3125 C94.15059652 182.6376662 92.98848329 181.96319344 91.82617188 181.2890625 C89.4127596 179.88892911 87.0002554 178.48724981 84.58837891 177.08447266 C79.06732929 173.87508732 73.53298399 170.68874937 68 167.5 C65.83327091 166.2501082 63.66660444 165.00010785 61.5 163.75 C60.4275 163.13125 59.355 162.5125 58.25 161.875 C55 160 51.75 158.125 48.5 156.25 C46.88847046 155.32078735 46.88847046 155.32078735 45.24438477 154.37280273 C43.09522902 153.13221475 40.94726218 151.88956469 38.80053711 150.64477539 C33.73314863 147.70976679 28.65631029 144.79712745 23.5350647 141.95724487 C21.12021475 140.61645213 18.71211489 139.2637872 16.30444336 137.91015625 C14.60459748 136.96100615 12.89516202 136.02909492 11.18554688 135.09765625 C10.15623047 134.51757812 9.12691406 133.9375 8.06640625 133.33984375 C7.15834229 132.83831787 6.25027832 132.33679199 5.31469727 131.82006836 C2.22885074 129.39363804 1.40363577 127.71168919 0 124 C-0.4260746 119.97715962 -0.37888723 115.97790527 -0.34057617 111.93603516 C-0.34101425 110.72571625 -0.34145233 109.51539734 -0.34190369 108.2684021 C-0.34017613 104.96285512 -0.32516796 101.65787553 -0.30418181 98.35242891 C-0.28538271 94.893122 -0.28366204 91.4338069 -0.28010559 87.97445679 C-0.27079458 81.4297134 -0.24619371 74.88512098 -0.21605712 68.34044397 C-0.18248361 60.8870218 -0.16601971 53.43359228 -0.15097082 45.98011327 C-0.11964321 30.65332152 -0.06690124 15.32668026 0 0 Z " fill="#FFC350" transform="translate(137,114)"/>
<path d="M0 0 C1.48504879 1.00673602 2.94355323 2.05387968 4.37109375 3.140625 C4.99798096 3.5850293 5.62486816 4.02943359 6.27075195 4.48730469 C8.13008599 5.83161899 9.93847967 7.22767096 11.74609375 8.640625 C17.62557873 13.14392592 23.61186594 17.42885077 29.74609375 21.578125 C38.33061234 27.39319192 46.7519917 33.40724824 55.1328125 39.51123047 C58.89425913 42.24943889 62.66323017 44.97721278 66.43359375 47.703125 C67.17150146 48.23687744 67.90940918 48.77062988 68.66967773 49.32055664 C74.59299742 53.59710391 80.55374433 57.81909279 86.53930664 62.00805664 C87.83380431 62.91647324 89.12460839 63.83017957 90.41137695 64.74951172 C91.79596379 65.73236655 93.19445173 66.69577675 94.60229492 67.64501953 C100.08290959 71.46785344 100.08290959 71.46785344 101.46875 74.703125 C101.42985855 77.39959854 101.15390484 79.55399921 100.37109375 82.140625 C98.74682617 83.6887207 98.74682617 83.6887207 96.6015625 85.00390625 C95.38134399 85.75921631 95.38134399 85.75921631 94.13647461 86.52978516 C88.99708296 89.523491 83.82862735 92.45447424 78.62109375 95.328125 C76.41761652 96.55014634 74.21447873 97.77277999 72.01171875 98.99609375 C71.04782227 99.52871826 70.08392578 100.06134277 69.09082031 100.61010742 C66.35387149 102.08786865 66.35387149 102.08786865 63.89355469 103.8996582 C60.55345028 105.54287837 58.91522395 105.15058068 55.37109375 104.140625 C52.66479492 102.90063477 52.66479492 102.90063477 49.9140625 101.33203125 C48.89304443 100.75517578 47.87202637 100.17832031 46.82006836 99.58398438 C45.74378174 98.96330078 44.66749512 98.34261719 43.55859375 97.703125 C42.43783447 97.06568359 41.3170752 96.42824219 40.16235352 95.77148438 C31.94992897 91.08776691 23.78918927 86.31861175 15.65917969 81.49365234 C11.09499606 78.79468674 6.51371511 76.12492393 1.93359375 73.453125 C0.9266748 72.86563477 -0.08024414 72.27814453 -1.11767578 71.67285156 C-7.64188183 67.87057013 -14.17731375 64.08819403 -20.72045898 60.31860352 C-24.00521798 58.42588248 -27.28784764 56.5295086 -30.5703125 54.6328125 C-34.3401529 52.45542001 -38.11792493 50.2934849 -41.90625 48.1484375 C-43.43890781 47.27101799 -44.97146794 46.39342783 -46.50390625 45.515625 C-47.18122803 45.13825195 -47.8585498 44.76087891 -48.55639648 44.37207031 C-52.43974749 42.13165607 -55.20997352 39.94180501 -57.62890625 36.140625 C-57.69140625 32.578125 -57.69140625 32.578125 -56.62890625 29.140625 C-53.41047896 26.23274771 -49.94802621 24.03726498 -46.19140625 21.890625 C-45.14138428 21.28702148 -44.0913623 20.68341797 -43.00952148 20.06152344 C-40.7208628 18.76108533 -38.43138206 17.46219798 -36.14086914 16.16503906 C-34.9609412 15.49572303 -33.78117295 14.82612541 -32.6015625 14.15625 C-32.0140773 13.82312805 -31.4265921 13.4900061 -30.82130432 13.14678955 C-27.00158209 10.96646722 -23.2695804 8.67843343 -19.5625 6.3125 C-18.63115234 5.73371094 -17.69980469 5.15492187 -16.74023438 4.55859375 C-14.99726395 3.47130614 -13.27187948 2.35514253 -11.56835938 1.20703125 C-7.11994001 -1.51529922 -4.77019755 -2.54086859 0 0 Z " fill="#FEE07C" transform="translate(194.62890625,77.859375)"/>
<path d="M0 0 C2.06104555 1.08149144 4.07679915 2.22239655 6.09082031 3.38916016 C6.86619141 3.8291333 7.6415625 4.26910645 8.44042969 4.72241211 C11.0394122 6.20335236 13.62863529 7.70021074 16.21582031 9.20166016 C17.12750977 9.73017578 18.03919922 10.25869141 18.97851562 10.80322266 C23.95185591 13.69107901 28.91751489 16.59187179 33.87988281 19.49853516 C40.26864076 23.23800636 46.67701969 26.94284272 53.09082031 30.63916016 C54.16388428 31.25774902 55.23694824 31.87633789 56.3425293 32.51367188 C60.76767213 35.06395591 65.19352385 37.61300745 69.61962891 40.16162109 C76.1769487 43.93781354 82.73191287 47.71801337 89.28222656 51.50634766 C91.18229404 52.60438931 93.08327854 53.70084627 94.98535156 54.79541016 C97.41928198 56.19665345 99.84935796 57.60432817 102.27832031 59.01416016 C102.98093994 59.41675049 103.68355957 59.81934082 104.4074707 60.23413086 C109.10139145 62.97280244 109.10139145 62.97280244 110.21582031 65.20166016 C110.6596958 69.1225603 110.89987318 71.32386683 108.42285156 74.50244141 C104.08124688 78.54364985 98.66669788 81.19576832 93.52832031 84.07666016 C91.79672368 85.05979434 90.06513604 86.04294476 88.33407593 87.02702332 C87.13598006 87.70747815 85.93726156 88.38683777 84.73794556 89.06513977 C80.40323568 91.51779009 76.09170387 94.00796817 71.79003906 96.51806641 C70.59239205 97.21553861 69.39471991 97.91296766 68.19702148 98.61035156 C65.90233774 99.94672309 63.60998141 101.28684877 61.31860352 102.62890625 C60.28437256 103.22912598 59.2501416 103.8293457 58.18457031 104.44775391 C57.27126953 104.98070068 56.35796875 105.51364746 55.41699219 106.06274414 C53.21582031 107.20166016 53.21582031 107.20166016 51.21582031 107.20166016 C51.15394531 106.08791016 51.09207031 104.97416016 51.02832031 103.82666016 C49.18668913 96.72144794 41.943601 93.1123611 36.21582031 89.20166016 C35.48524414 88.69973145 34.75466797 88.19780273 34.00195312 87.68066406 C30.82035339 85.49793866 27.63482286 83.32135732 24.4387207 81.15991211 C19.25289814 77.6428534 14.19715666 74.00193266 9.21582031 70.20166016 C3.50291785 65.84493418 -2.33146239 61.72428292 -8.28417969 57.70166016 C-14.90366996 53.22845726 -21.34554974 48.59380232 -27.69262695 43.74316406 C-33.88138337 39.04803046 -40.29085928 34.69518663 -46.75488281 30.38916016 C-47.52638672 29.87095703 -48.29789063 29.35275391 -49.09277344 28.81884766 C-49.78169678 28.36106934 -50.47062012 27.90329102 -51.18041992 27.43164062 C-52.78417969 26.20166016 -52.78417969 26.20166016 -53.78417969 24.20166016 C-52.73629272 23.59862061 -52.73629272 23.59862061 -51.66723633 22.98339844 C-48.99138031 21.44297381 -46.31585622 19.90197501 -43.64065552 18.3604126 C-42.44758442 17.67292276 -41.25444914 16.98554427 -40.06124878 16.29827881 C-31.93308858 11.6154669 -23.8212768 6.90705381 -15.7746582 2.08496094 C-10.08036407 -1.30091498 -6.35691778 -2.84443366 0 0 Z " fill="#FEE07C" transform="translate(259.7841796875,42.79833984375)"/>
<path d="M0 0 C1.35677101 -0.00956978 1.35677101 -0.00956978 2.74095154 -0.01933289 C3.71081497 -0.02044571 4.68067841 -0.02155853 5.67993164 -0.02270508 C6.68343155 -0.02603348 7.68693146 -0.02936188 8.72084045 -0.03279114 C10.84155825 -0.03785001 12.96228399 -0.04019978 15.08300781 -0.04003906 C18.32443362 -0.04222577 21.56551915 -0.06039323 24.80688477 -0.0793457 C26.86873256 -0.0822798 28.93058197 -0.08426449 30.99243164 -0.08520508 C31.96027084 -0.09239059 32.92811005 -0.09957611 33.92527771 -0.10697937 C42.91637382 -0.07650311 42.91637382 -0.07650311 46.40258789 2.14526367 C49.89724216 6.23120435 49.76899579 10.32448308 49.59008789 15.45776367 C49.57655273 16.19833008 49.56301758 16.93889648 49.54907227 17.7019043 C49.51394768 19.51667442 49.46014761 21.33106655 49.40258789 23.14526367 C50.71453125 23.11907959 52.02647461 23.09289551 53.37817383 23.06591797 C58.24583887 22.9754152 63.11342959 22.91801373 67.98168945 22.87060547 C70.0885875 22.84546155 72.19539832 22.8113416 74.30200195 22.76806641 C77.33054109 22.70740999 80.35792719 22.67905284 83.38696289 22.65698242 C84.79966461 22.61827278 84.79966461 22.61827278 86.24090576 22.57878113 C92.78309055 22.57597547 92.78309055 22.57597547 96.01123047 25.54248047 C98.21743511 29.6695813 97.49173492 31.64345594 96.40258789 36.14526367 C94.82539936 38.25769048 93.98679122 39.04150137 91.37141418 39.50602722 C90.59642075 39.49936539 89.82142731 39.49270355 89.02294922 39.48583984 C88.14226273 39.48561325 87.26157623 39.48538666 86.35420227 39.4851532 C85.40723984 39.46966934 84.4602774 39.45418549 83.48461914 39.43823242 C82.51223801 39.43398758 81.53985687 39.42974274 80.53800964 39.42536926 C77.43008823 39.40856682 74.32281355 39.37091147 71.21508789 39.33276367 C69.10897746 39.31771887 67.00285687 39.30403011 64.89672852 39.29174805 C59.73176551 39.25865811 54.56728638 39.20686476 49.40258789 39.14526367 C49.43739258 40.24225586 49.47219727 41.33924805 49.50805664 42.46948242 C49.53620654 43.92389413 49.56350541 45.37832248 49.59008789 46.83276367 C49.61522461 47.55399414 49.64036133 48.27522461 49.66625977 49.01831055 C49.7292602 53.61734258 49.28831086 56.51961174 46.40258789 60.14526367 C43.16308959 62.3049292 42.27411818 62.39721146 38.53564453 62.40405273 C37.54774429 62.41035706 36.55984406 62.41666138 35.54200745 62.42315674 C34.47635056 62.41910828 33.41069366 62.41505981 32.31274414 62.41088867 C31.21667343 62.41280212 30.12060272 62.41471558 28.99131775 62.41668701 C26.67210663 62.41804869 24.3528879 62.41435349 22.03369141 62.40600586 C18.48265444 62.39531655 14.93212459 62.40589671 11.38110352 62.41870117 C9.12914927 62.41737937 6.87719535 62.41481656 4.62524414 62.41088867 C3.56161148 62.41493713 2.49797882 62.4189856 1.40211487 62.42315674 C0.41106247 62.41685242 -0.57998993 62.4105481 -1.60107422 62.40405273 C-2.47138779 62.40246155 -3.34170135 62.40087036 -4.23838806 62.39923096 C-6.8678787 62.11614584 -8.41140745 61.63315782 -10.59741211 60.14526367 C-12.59741211 56.14526367 -12.59741211 56.14526367 -12.59741211 39.14526367 C-44.93741211 39.14526367 -77.27741211 39.14526367 -110.59741211 39.14526367 C-110.59741211 33.86526367 -110.59741211 28.58526367 -110.59741211 23.14526367 C-78.25741211 23.14526367 -45.91741211 23.14526367 -12.59741211 23.14526367 C-12.59741211 17.53526367 -12.59741211 11.92526367 -12.59741211 6.14526367 C-8.59741211 1.14526367 -8.59741211 1.14526367 -6.63475037 0.34184265 C-4.41037291 0.12721661 -2.23555248 0.01074287 0 0 Z " fill="#E5646D" transform="translate(393.597412109375,408.854736328125)"/>
<path d="M0 0 C0.90128632 -0.00960754 1.80257263 -0.01921509 2.73117065 -0.02911377 C3.69789703 -0.03336365 4.66462341 -0.03761353 5.66064453 -0.04199219 C6.66177277 -0.04769226 7.662901 -0.05339233 8.69436646 -0.05926514 C10.81088202 -0.06870365 12.92741221 -0.07524455 15.04394531 -0.07910156 C18.27451286 -0.08881026 21.50444488 -0.11984611 24.73486328 -0.15136719 C26.79345326 -0.15789737 28.85204778 -0.16314778 30.91064453 -0.16699219 C31.87332245 -0.17933899 32.83600037 -0.19168579 33.82785034 -0.20440674 C39.04169832 -0.18716629 43.0438934 -0.01486096 47.41845703 3.16113281 C50.39508838 7.62928971 49.70582057 13.35608668 49.68408203 18.53613281 C49.68695221 20.03926025 49.68695221 20.03926025 49.68988037 21.57275391 C49.69123893 23.68750256 49.68756548 25.80225965 49.67919922 27.91699219 C49.6684952 31.14960505 49.67910581 34.38166219 49.69189453 37.61425781 C49.69057288 39.6715507 49.68801037 41.72884325 49.68408203 43.78613281 C49.68813049 44.75083496 49.69217896 45.71553711 49.6963501 46.70947266 C49.63510033 55.49656336 49.63510033 55.49656336 47.41845703 59.16113281 C44.39572808 61.90946346 42.41665384 62.54235332 38.36206055 62.58105469 C37.35744278 62.59696655 36.35282501 62.61287842 35.31776428 62.62927246 C34.23853195 62.62947388 33.15929962 62.62967529 32.04736328 62.62988281 C30.37564308 62.6413031 30.37564308 62.6413031 28.67015076 62.6529541 C26.31405884 62.66375586 23.95791903 62.66660792 21.60180664 62.66210938 C17.99755991 62.66113729 14.39544312 62.70275656 10.79150391 62.74707031 C8.5017948 62.75227745 6.2120783 62.7549655 3.92236328 62.75488281 C2.84515518 62.77127808 1.76794708 62.78767334 0.65809631 62.80456543 C-3.87260177 62.76273044 -6.78480359 62.61725143 -10.76123047 60.34082031 C-13.51443645 55.5315721 -13.27775606 51.14502946 -13.21044922 45.69238281 C-13.21286118 44.57931763 -13.21527313 43.46625244 -13.21775818 42.31945801 C-13.21677993 39.96928337 -13.20339198 37.61908563 -13.1784668 35.26904297 C-13.1441627 31.67368211 -13.15781002 28.08077965 -13.17724609 24.48535156 C-13.1703475 22.20018486 -13.160675 19.91502449 -13.14794922 17.62988281 C-13.15290909 16.55581177 -13.15786896 15.48174072 -13.16297913 14.37512207 C-13.09217852 9.88404484 -13.03634359 6.96463672 -10.79614258 3.00683594 C-7.40982275 0.18459165 -4.30917516 0.0372347 0 0 Z " fill="#E5646E" transform="translate(234.58154296875,408.8388671875)"/>
<path d="M0 0 C9.21104179 5.65821138 17.9050163 11.90513843 26.6328125 18.27392578 C30.43551734 21.04673139 34.24817685 23.80570737 38.0625 26.5625 C38.80701416 27.10084473 39.55152832 27.63918945 40.31860352 28.19384766 C46.05135522 32.33198905 51.82226217 36.4138574 57.60571289 40.48071289 C63.52114827 44.64646432 69.38647779 48.87913452 75.24316406 53.12695312 C81.23345579 57.4650206 87.2702691 61.73423553 93.34375 65.95507812 C104.31714847 73.63429693 104.31714847 73.63429693 106 77 C106.10972285 78.48450641 106.15903275 79.97371086 106.17700195 81.4621582 C106.19625481 82.84918694 106.19625481 82.84918694 106.21589661 84.26423645 C106.22328354 85.26629623 106.23067047 86.26835602 106.23828125 87.30078125 C106.246353 88.3293071 106.25442474 89.35783295 106.26274109 90.41752625 C106.27658767 92.59726268 106.28730725 94.77702086 106.29516602 96.95678711 C106.31237689 100.28866727 106.35625835 103.61955486 106.40039062 106.95117188 C106.41051756 109.06770103 106.41903366 111.18423863 106.42578125 113.30078125 C106.44328934 114.29676834 106.46079742 115.29275543 106.47883606 116.31892395 C106.46498149 120.74272866 106.43444451 123.28372497 104.10058594 127.1315918 C101.8071873 129.17150112 100.9562354 129.6395947 97.9375 129.5 C94 129 94 129 92.0625 127.6875 C89.38023038 123.42742472 90.07867212 119.21035956 90.31640625 114.4140625 C92.05527076 95.04897811 92.05527076 95.04897811 85.52734375 77.8828125 C81.85308283 74.95547356 77.78177195 72.98249562 73.4765625 71.14257812 C69.44507661 69.28262604 66.04710531 66.64182617 62.5 64 C61.09248795 63.00406501 59.68231396 62.01188158 58.26953125 61.0234375 C53.88246903 57.92680621 49.53385763 54.77838884 45.1875 51.625 C38.00666061 46.41733039 30.75780515 41.31410505 23.47924805 36.24414062 C17.01966069 31.73631228 10.63160117 27.13632767 4.26611328 22.49682617 C-1.04748295 18.64018374 -6.45842904 14.99988298 -12.0078125 11.48828125 C-12.66523438 10.99714844 -13.32265625 10.50601563 -14 10 C-14 9.34 -14 8.68 -14 8 C-9.38 5.36 -4.76 2.72 0 0 Z " fill="#E6656E" transform="translate(205,67)"/>
<path d="M0 0 C2.5 1.5 2.5 1.5 4 4 C4.43806449 8.65985083 4.58605342 10.96283096 2.26953125 15.0625 C1.45871094 16.031875 0.64789063 17.00125 -0.1875 18 C-0.6316626 18.54342041 -1.0758252 19.08684082 -1.53344727 19.64672852 C-2.49787991 20.82345243 -3.47079747 21.99326266 -4.45117188 23.15673828 C-6.59980677 25.71383056 -8.69509699 28.31285972 -10.79541016 30.90966797 C-12.44406255 32.94560415 -14.10059011 34.97494307 -15.7578125 37.00390625 C-18.81781313 40.76200935 -21.82490291 44.55920492 -24.8125 48.375 C-25.48539063 49.23194458 -25.48539063 49.23194458 -26.171875 50.10620117 C-28.23471909 52.73548821 -30.28563234 55.37218759 -32.3203125 58.0234375 C-33.01898438 58.92320312 -33.71765625 59.82296875 -34.4375 60.75 C-35.03433594 61.52859375 -35.63117188 62.3071875 -36.24609375 63.109375 C-38.17357069 65.1871007 -39.28545407 66.17653986 -42 67 C-47.9605072 66.76635061 -50.92063671 64.92838323 -54.8984375 60.72265625 C-55.41886627 60.19610947 -55.93929504 59.66956268 -56.47549438 59.12705994 C-58.12327469 57.45248054 -59.74871414 55.75793313 -61.375 54.0625 C-62.48954387 52.92641671 -63.60541738 51.79163623 -64.72265625 50.65820312 C-73.87842268 41.31303507 -73.87842268 41.31303507 -74.3125 36.625 C-74 33 -74 33 -72.4375 30.625 C-69.01970414 28.34646943 -67.139022 27.7930489 -63 28 C-59.91923363 29.91761988 -57.51712317 32.40421673 -55 35 C-53.37630144 36.64711729 -51.75130251 38.29295371 -50.125 39.9375 C-49.38507813 40.70964844 -48.64515625 41.48179687 -47.8828125 42.27734375 C-46.17939784 44.2250104 -46.17939784 44.2250104 -44 44 C-42.48077517 42.2003503 -41.07942605 40.39519662 -39.6875 38.5 C-35.7537146 33.26102233 -31.71425654 28.13050201 -27.5625 23.0625 C-22.75849296 17.19512451 -18.03707004 11.27278118 -13.42602539 5.25219727 C-9.45574459 0.12615555 -6.49513352 -0.88570003 0 0 Z " fill="#48BDFF" transform="translate(137,324)"/>
<path d="M0 0 C2.5 1.5 2.5 1.5 4 4 C4.43806449 8.65985083 4.58605342 10.96283096 2.26953125 15.0625 C1.45871094 16.031875 0.64789063 17.00125 -0.1875 18 C-0.6316626 18.54342041 -1.0758252 19.08684082 -1.53344727 19.64672852 C-2.49787991 20.82345243 -3.47079747 21.99326266 -4.45117188 23.15673828 C-6.59980677 25.71383056 -8.69509699 28.31285972 -10.79541016 30.90966797 C-12.44406255 32.94560415 -14.10059011 34.97494307 -15.7578125 37.00390625 C-18.81781313 40.76200935 -21.82490291 44.55920492 -24.8125 48.375 C-25.48539062 49.23194458 -25.48539062 49.23194458 -26.171875 50.10620117 C-28.23471909 52.73548821 -30.28563234 55.37218759 -32.3203125 58.0234375 C-33.01898438 58.92320312 -33.71765625 59.82296875 -34.4375 60.75 C-35.03433594 61.52859375 -35.63117188 62.3071875 -36.24609375 63.109375 C-38.17357069 65.1871007 -39.28545407 66.17653986 -42 67 C-47.89209781 66.75319444 -50.90619031 64.98114239 -54.8984375 60.86328125 C-55.41886627 60.34622116 -55.93929504 59.82916107 -56.47549438 59.2964325 C-57.56666169 58.20496753 -58.65043134 57.10606168 -59.72705078 56.00024414 C-61.37218633 54.31538162 -63.04472592 52.66190054 -64.72265625 51.00976562 C-65.7830122 49.94185101 -66.84166658 48.87224361 -67.8984375 47.80078125 C-68.39628754 47.30991531 -68.89413757 46.81904938 -69.40707397 46.31330872 C-72.57251736 43.01657822 -73.84033279 40.58197703 -74 36 C-71.77647059 30.38823529 -71.77647059 30.38823529 -69 29 C-62.38918972 28.03325785 -62.38918972 28.03325785 -58.97363281 30.41015625 C-56.92121437 32.36367524 -55.01306304 34.38734882 -53.125 36.5 C-51.81915267 37.91001025 -50.50945305 39.31646587 -49.1953125 40.71875 C-48.62828613 41.34716797 -48.06125977 41.97558594 -47.47705078 42.62304688 C-46.09273533 44.22729579 -46.09273533 44.22729579 -44 44 C-42.27212997 41.9948175 -40.65976141 39.98099622 -39.0625 37.875 C-38.06263693 36.57932141 -37.06263313 35.2837514 -36.0625 33.98828125 C-35.55203125 33.3226416 -35.0415625 32.65700195 -34.515625 31.97119141 C-32.21936893 28.98472693 -29.8922731 26.02284692 -27.5625 23.0625 C-27.1185791 22.49813232 -26.6746582 21.93376465 -26.21728516 21.35229492 C-25.29928313 20.18600239 -24.38081857 19.0200738 -23.46191406 17.85449219 C-22.43442446 16.55108353 -21.40780943 15.2469852 -20.38183594 13.94238281 C-18.73767282 11.85426683 -17.08824686 9.77041343 -15.4375 7.6875 C-14.92453369 7.03467041 -14.41156738 6.38184082 -13.88305664 5.70922852 C-9.64857416 0.38492133 -6.86164287 -0.93567857 0 0 Z " fill="#48BDFF" transform="translate(299,324)"/>
<path d="M0 0 C32.67 0 65.34 0 99 0 C99 5.28 99 10.56 99 16 C66.33 16 33.66 16 0 16 C0 10.72 0 5.44 0 0 Z " fill="#49BCFE" transform="translate(283,432)"/>
<path d="M0 0 C32.34 0 64.68 0 98 0 C98 5.28 98 10.56 98 16 C65.66 16 33.32 16 0 16 C0 10.72 0 5.44 0 0 Z " fill="#49BDFF" transform="translate(124,432)"/>
<path d="M0 0 C6.33537672 -0.12358928 12.67005207 -0.21433551 19.00634766 -0.2746582 C21.16174542 -0.29980397 23.31705791 -0.33392524 25.47216797 -0.37719727 C28.57020092 -0.43784508 31.66710681 -0.46620912 34.765625 -0.48828125 C35.72929993 -0.51408768 36.69297485 -0.5398941 37.68585205 -0.56648254 C44.37725566 -0.5692884 44.37725566 -0.5692884 47.62231445 2.3972168 C49.80820625 6.52689825 49.08788388 8.50341331 48 13 C46.41171231 15.1368342 45.57361408 15.89998778 42.93086243 16.36076355 C41.74172493 16.3507708 41.74172493 16.3507708 40.52856445 16.34057617 C39.62785721 16.34034958 38.72714996 16.34012299 37.79914856 16.33988953 C36.34589424 16.31666374 36.34589424 16.31666374 34.86328125 16.29296875 C33.37141548 16.28660149 33.37141548 16.28660149 31.84941101 16.28010559 C28.67016625 16.26330153 25.49155344 16.22564576 22.3125 16.1875 C20.15821227 16.17245541 18.00391462 16.15876662 15.84960938 16.14648438 C10.56616245 16.11339227 5.2831884 16.06159771 0 16 C0 10.72 0 5.44 0 0 Z " fill="#49BCFE" transform="translate(442,432)"/>
<path d="M0 0 C1.21583771 0.03870964 1.21583771 0.03870964 2.45623779 0.07820129 C3.71292267 0.0888134 3.71292267 0.0888134 4.99499512 0.09963989 C7.66528426 0.12758188 10.33345988 0.19031642 13.00311279 0.25398254 C14.81558246 0.27906583 16.62808507 0.30187895 18.44061279 0.32234192 C22.8789245 0.3774075 27.3156606 0.46367587 31.75311279 0.56648254 C31.75311279 5.84648254 31.75311279 11.12648254 31.75311279 16.56648254 C26.39629146 16.64060304 21.03976817 16.6950703 15.68255615 16.73127747 C13.85991212 16.74637015 12.03730444 16.7668465 10.21478271 16.7928009 C7.59595779 16.82916357 4.97761272 16.84620378 2.35858154 16.85945129 C1.13500191 16.88267708 1.13500191 16.88267708 -0.11329651 16.90637207 C-5.79805375 16.90806572 -5.79805375 16.90806572 -7.92759705 15.28738403 C-10.09821048 12.45600395 -10.69879032 9.04168117 -10.24688721 5.56648254 C-7.57295531 0.84290543 -5.37414918 -0.00266878 0 0 Z " fill="#48BDFF" transform="translate(31.24688720703125,431.4335174560547)"/>
</svg>
